<svg width="192" height="32" viewBox="0 0 192 32" fill="none" xmlns="http://www.w3.org/2000/svg">
<g clip-path="url(#clip0_17009_19)">
<path d="M180.878 17.6573C181.082 16.023 181.978 15.381 183.896 15.381H184.661C186.578 15.381 187.473 16.023 187.679 17.6573H180.878ZM185.045 12.3396H183.504C179.644 12.3396 177.42 14.5639 177.42 18.4242V19.7719C177.42 23.6304 179.644 25.829 183.504 25.829H189.921C190.015 25.8178 190.103 25.7728 190.167 25.7023C190.232 25.6318 190.268 25.5404 190.271 25.445V23.7098V23.1687C190.271 22.965 190.296 22.7864 190.09 22.7864H183.887C182.045 22.7864 181.019 22.0376 180.921 20.5353H190.761C190.862 20.5329 190.958 20.4919 191.029 20.4208C191.101 20.3497 191.142 20.2538 191.145 20.153V18.416C191.145 14.5557 188.896 12.3314 185.035 12.3314" fill="white"/>
<path d="M119.779 17.6573C119.983 16.0231 120.878 15.381 122.796 15.381H123.562C125.479 15.381 126.374 16.0231 126.578 17.6573H119.779ZM123.946 12.3396H122.411C118.552 12.3396 116.328 14.5639 116.328 18.4242V19.7719C116.328 23.6304 118.552 25.829 122.411 25.829H128.831C128.926 25.8178 129.014 25.7728 129.078 25.7023C129.142 25.6318 129.179 25.5404 129.181 25.445V23.7098V23.1687C129.181 22.965 129.206 22.7864 129.001 22.7864H122.794C120.954 22.7864 119.926 22.0376 119.828 20.5353H129.67C129.771 20.5329 129.867 20.4919 129.938 20.4207C130.009 20.3495 130.05 20.2536 130.053 20.153V18.416C130.053 14.5558 127.803 12.3314 123.945 12.3314" fill="white"/>
<path d="M89.4006 17.6573C89.6043 16.0231 90.5008 15.381 92.4169 15.381H93.1833C95.1006 15.381 95.9953 16.0231 96.2014 17.6573H89.4006ZM93.5673 12.3396H92.0341C88.1738 12.3396 85.9512 14.5639 85.9512 18.4242V19.7719C85.9512 23.6304 88.1738 25.829 92.0341 25.829H98.4502C98.545 25.8178 98.6326 25.7728 98.6969 25.7023C98.7612 25.6318 98.7979 25.5404 98.8004 25.445V23.7098V23.1687C98.8004 22.965 98.8255 22.7864 98.62 22.7864H92.41C90.5703 22.7864 89.5436 22.0376 89.4462 20.5353H99.286C99.3868 20.5329 99.4828 20.492 99.5543 20.4208C99.6258 20.3497 99.6672 20.2538 99.67 20.153V18.416C99.67 14.5558 97.4206 12.3314 93.5603 12.3314" fill="white"/>
<path d="M73.4804 25.836C73.6876 25.836 73.7383 25.6808 73.7383 25.4753V18.4598C73.7383 16.2571 74.193 15.4114 76.7617 15.4114H77.5262C80.1381 15.4114 80.5729 16.2577 80.5729 18.074V25.4701C80.5729 25.6773 80.5893 25.8308 80.7965 25.8308H83.7784C83.982 25.8308 84.0054 25.6738 84.0054 25.4701V18.0734C84.0054 14.2855 81.9562 12.3641 77.9103 12.3641H76.377C75.4668 12.4352 74.5733 12.6483 73.729 12.9956V12.5392C73.729 12.3355 73.729 12.1534 73.5195 12.1534H70.5195C70.314 12.1534 70.3105 12.3338 70.3105 12.5392V25.473C70.3105 25.6802 70.3251 25.8337 70.5271 25.8337L73.4804 25.836Z" fill="white"/>
<path d="M47.1797 12.1406H45.6394C44.7342 12.1384 43.8357 12.2946 42.9844 12.6023V7.59684C42.9844 7.44684 42.804 7.37505 42.6237 7.37505H39.8893C39.7089 7.37505 39.5467 7.44567 39.5391 7.58983V16.5244H43.2044C43.5832 15.4925 44.4669 15.182 46.0223 15.182H46.7927C48.9698 15.182 49.8429 16.0283 49.8429 18.2304V19.7689C49.8429 21.9717 48.9674 22.9207 46.7927 22.9207H46.0223C43.8196 22.9207 42.9739 21.9717 42.9739 19.7689V18.7096H39.5467V25.658C39.5467 25.8384 39.7037 25.8384 39.884 25.8384H48.647C51.5332 25.7555 53.245 23.1179 53.245 19.7754V18.2368C53.245 14.3678 51.0405 12.14 47.1785 12.14" fill="white"/>
<path d="M110.516 26.1535L105.925 26.1372C103.399 26.1372 101.52 24.5135 101.348 22.2734C101.345 22.224 101.352 22.1744 101.368 22.1277C101.385 22.081 101.411 22.0382 101.445 22.002C101.478 21.9658 101.519 21.9369 101.565 21.9173C101.61 21.8976 101.659 21.8875 101.709 21.8876L104.442 21.8964C104.651 21.8964 104.752 22.0767 104.827 22.2863C105.061 22.9866 105.987 23.0672 106.294 23.0672L110.138 23.0818C110.499 23.0818 111.66 22.8763 111.663 21.8193C111.665 20.7623 110.503 20.7372 110.145 20.7372L105.937 20.7174C103.252 20.7063 101.321 19.0522 101.33 16.6225C101.339 14.1927 103.282 12.4739 105.935 12.4844L109.983 12.499C112.38 12.499 114.185 13.9639 114.508 16.0505C114.51 16.1017 114.501 16.1528 114.482 16.2004C114.463 16.248 114.434 16.2912 114.398 16.3274C114.362 16.3635 114.318 16.3919 114.27 16.4106C114.223 16.4293 114.172 16.4381 114.12 16.4363H111.436C111.319 16.4156 111.209 16.37 111.112 16.3028C111.015 16.2355 110.933 16.148 110.873 16.0464C110.702 15.8836 110.5 15.7581 110.278 15.6777C110.056 15.5973 109.82 15.5639 109.585 15.5795L106.338 15.5684C105.977 15.5684 104.767 15.5684 104.762 16.619C104.762 17.7011 105.972 17.6596 106.302 17.6596L110.538 17.6742C113.213 17.6853 115.116 19.3913 115.107 21.8427C115.098 24.294 113.184 26.1722 110.507 26.1617" fill="white"/>
<path d="M140.059 12.3355H136.67C134.007 12.3355 132.07 14.0982 132.07 16.5262V25.4561C132.07 25.658 132.07 25.8419 132.271 25.8419H135.272C135.478 25.8419 135.502 25.6615 135.502 25.4561V16.4987C135.502 15.4522 136.676 15.3968 137.037 15.3968H140.06C140.213 15.3968 140.336 15.3659 140.336 15.1966V12.5556C140.336 12.3857 140.213 12.3408 140.06 12.3303" fill="white"/>
<path d="M156.447 25.4496C156.447 25.6533 156.447 25.8354 156.647 25.8354H159.649C159.856 25.8354 159.879 25.6551 159.879 25.4479V18.7143H156.447V25.4496Z" fill="white"/>
<path d="M159.683 12.4692H156.683C156.475 12.4692 156.453 12.6495 156.453 12.855V16.532H159.88V12.855C159.88 12.653 159.88 12.4692 159.678 12.4692" fill="white"/>
<path d="M64.94 21.6366C64.94 22.6872 64.8321 22.7911 63.4319 22.7911H59.6183C59.2576 22.7911 58.0798 22.6901 58.0798 21.6366V21.2561C58.0798 20.174 59.2593 20.1285 59.6183 20.1285H63.4319C63.7926 20.1285 64.94 20.1793 64.94 21.2561V21.6366ZM68.3672 18.3898C68.3672 14.526 66.1394 12.3233 62.2722 12.3233H56.7525C56.7034 12.3247 56.6551 12.3358 56.6104 12.356C56.5656 12.3763 56.5253 12.4051 56.4918 12.441C56.4582 12.4769 56.4321 12.519 56.415 12.565C56.3978 12.611 56.39 12.66 56.3918 12.7091V14.9853C56.389 15.084 56.4254 15.1798 56.4929 15.2518C56.5605 15.3237 56.6539 15.366 56.7525 15.3694H61.8969C63.6087 15.3694 64.5052 15.9104 64.8151 17.1857C64.4862 17.1228 64.1525 17.0878 63.8177 17.0812H59.236C56.5985 17.0812 54.6543 18.8217 54.6543 21.2573V21.6378C54.6543 24.0728 56.599 25.8401 59.236 25.8401H68.1577C68.1947 25.8437 68.2319 25.8357 68.2642 25.8173C68.2964 25.7989 68.3223 25.771 68.3381 25.7374C68.3709 25.6462 68.3844 25.5492 68.3778 25.4526L68.3672 18.3898Z" fill="white"/>
<path d="M154.707 12.3215H151.822C151.616 12.3215 151.513 12.5311 151.436 12.7709C151.436 12.7709 148.51 21.1756 148.424 21.1756C148.337 21.1756 145.41 12.7709 145.41 12.7709C145.332 12.5311 145.229 12.3198 145.024 12.3198H142.138C141.932 12.3198 141.855 12.5311 141.957 12.7709C141.957 12.7709 145.951 23.8288 146.781 25.6738V25.6936C146.831 25.8057 146.893 25.8255 146.928 25.829H149.885C149.923 25.829 149.983 25.8057 150.035 25.6919C150.843 23.9076 154.868 12.7651 154.868 12.7651C154.97 12.5252 154.895 12.3157 154.687 12.3157" fill="white"/>
<path d="M165.996 16.5244C166.595 15.7575 166.997 15.6227 168.643 15.597H169.415C170.118 15.5325 170.826 15.6517 171.469 15.9431C171.694 16.1056 171.891 16.3026 172.053 16.5267C172.207 16.7363 172.233 16.9201 172.445 16.9201H175.673C175.885 16.9201 175.957 16.7304 175.885 16.5267C175.771 16.1963 175.629 15.8764 175.459 15.5707C174.399 13.5344 172.474 12.4645 169.804 12.4534H168.253C165.329 12.4534 162.937 13.7159 162.327 16.5209L165.996 16.5244ZM175.656 21.5392H172.629C172.425 21.5392 172.343 21.7195 172.242 21.9291C171.801 22.7333 170.92 23.0707 169.521 23.0707H168.749C166.521 23.0707 165.666 22.2156 165.666 19.9896V18.7143H162.193V19.9896C162.193 23.9275 164.421 26.1477 168.359 26.1477H169.91C173.121 26.1477 175.222 24.6471 175.864 21.9285C175.914 21.7248 175.864 21.5386 175.654 21.5386" fill="white"/>
<path d="M15.8307 32C19.6398 31.9993 23.3209 30.625 26.1985 28.1293C29.0761 25.6336 30.9572 22.1838 31.4966 18.4131L0.166016 18.4096C0.704348 22.1809 2.58486 25.6314 5.46235 28.1279C8.33984 30.6243 12.0212 31.9992 15.8307 32Z" fill="white"/>
<path d="M9.01196 16.86C7.72208 16.86 6.47015 16.6581 6.2933 16.0645C6.1433 15.5649 6.74972 15.1248 7.29427 14.784C9.59802 13.5299 11.9854 12.4359 14.4394 11.5097C15.5886 11.0785 16.84 10.9987 18.0347 11.2803C18.9458 11.4752 26.6354 12.8877 31.5223 13.7824C31.2559 11.7196 30.5855 9.72963 29.5494 7.92615C28.5133 6.12267 27.1319 4.5411 25.4842 3.27187C23.8364 2.00264 21.9547 1.07064 19.9465 0.529175C17.9383 -0.0122936 15.8431 -0.152616 13.7807 0.116231C11.7182 0.385078 9.72897 1.05782 7.9267 2.096C6.12443 3.13417 4.54447 4.51741 3.27716 6.16662C2.00985 7.81584 1.08005 9.69868 0.540924 11.7075C0.00179582 13.7163 -0.136084 15.8117 0.135166 17.8738H31.6C31.6361 17.5493 31.6612 17.2207 31.6776 16.8909L9.01196 16.86Z" fill="white"/>
</g>
<defs>
<clipPath id="clip0_17009_19">
<rect width="192" height="32" fill="white"/>
</clipPath>
</defs>
</svg>
