<svg width="32" height="32" viewBox="0 0 32 32" fill="none" xmlns="http://www.w3.org/2000/svg">
<path d="M15.8307 32.0001C19.6398 31.9994 23.3209 30.6251 26.1985 28.1294C29.0761 25.6336 30.9572 22.1839 31.4966 18.4132L0.166016 18.4097C0.704348 22.1809 2.58486 25.6315 5.46235 28.1279C8.33984 30.6244 12.0212 31.9992 15.8307 32.0001Z" fill="#96BE6E"/>
<path d="M9.01196 16.86C7.72208 16.86 6.47015 16.658 6.2933 16.0644C6.1433 15.5648 6.74972 15.1248 7.29427 14.7839C9.59802 13.5298 11.9854 12.4358 14.4394 11.5096C15.5886 11.0785 16.84 10.9986 18.0347 11.2802C18.9458 11.4752 26.6354 12.8876 31.5223 13.7823C31.2559 11.7196 30.5855 9.72957 29.5494 7.92609C28.5133 6.12261 27.1319 4.54104 25.4842 3.27181C23.8364 2.00258 21.9547 1.07058 19.9465 0.529114C17.9383 -0.0123546 15.8431 -0.152677 13.7807 0.11617C11.7182 0.385017 9.72897 1.05776 7.9267 2.09593C6.12443 3.13411 4.54447 4.51735 3.27716 6.16656C2.00985 7.81578 1.08005 9.69862 0.540924 11.7074C0.00179582 13.7162 -0.136084 15.8116 0.135166 17.8738H31.6C31.6361 17.5492 31.6612 17.2207 31.6776 16.8909L9.01196 16.86Z" fill="#0B1F2E"/>
</svg>
