<svg width="120" height="20" viewBox="0 0 120 20" fill="none" xmlns="http://www.w3.org/2000/svg">
<g clip-path="url(#clip0_14309_360)">
<path d="M113.048 11.0357C113.175 10.0143 113.736 9.61303 114.934 9.61303H115.412C116.611 9.61303 117.17 10.0143 117.299 11.0357H113.048ZM115.652 7.71214H114.69C112.277 7.71214 110.887 9.10233 110.887 11.515V12.3573C110.887 14.7689 112.277 16.143 114.69 16.143H118.7C118.759 16.136 118.814 16.1079 118.854 16.0638C118.894 16.0197 118.917 15.9626 118.919 15.903V14.8185V14.4803C118.919 14.353 118.934 14.2414 118.806 14.2414H114.929C113.777 14.2414 113.136 13.7734 113.075 12.8344H119.225C119.288 12.833 119.348 12.8073 119.393 12.7629C119.437 12.7184 119.463 12.6585 119.465 12.5955V11.5099C119.465 9.09722 118.059 7.70703 115.646 7.70703" fill="#1F4A21"/>
<path d="M74.8621 11.0357C74.9894 10.0143 75.5486 9.61303 76.7472 9.61303H77.2262C78.4245 9.61303 78.9837 10.0143 79.1114 11.0357H74.8621ZM77.4662 7.71214H76.5069C74.0953 7.71214 72.7051 9.10233 72.7051 11.515V12.3573C72.7051 14.7689 74.0953 16.143 76.5069 16.143H80.5195C80.5787 16.136 80.6335 16.1079 80.6737 16.0638C80.7139 16.0197 80.7368 15.9626 80.7383 15.903V14.8185V14.4803C80.7383 14.353 80.754 14.2414 80.6256 14.2414H76.7462C75.5964 14.2414 74.9536 13.7734 74.8927 12.8344H81.044C81.1069 12.8329 81.1669 12.8073 81.2113 12.7628C81.2558 12.7183 81.2815 12.6584 81.283 12.5955V11.5099C81.283 9.09722 79.8771 7.70703 77.4655 7.70703" fill="#1F4A21"/>
<path d="M55.8746 11.0357C56.0019 10.0143 56.5622 9.61303 57.7598 9.61303H58.2388C59.4371 9.61303 59.9963 10.0143 60.1251 11.0357H55.8746ZM58.4788 7.71214H57.5205C55.1078 7.71214 53.7188 9.10233 53.7188 11.515V12.3573C53.7188 14.7689 55.1078 16.143 57.5205 16.143H61.5306C61.5899 16.136 61.6446 16.1079 61.6848 16.0638C61.725 16.0197 61.748 15.9626 61.7495 15.903V14.8185V14.4803C61.7495 14.353 61.7652 14.2414 61.6368 14.2414H57.7555C56.6057 14.2414 55.964 13.7734 55.9031 12.8344H62.053C62.116 12.833 62.176 12.8073 62.2207 12.7629C62.2653 12.7184 62.2912 12.6585 62.293 12.5955V11.5099C62.293 9.09722 60.8871 7.70703 58.4745 7.70703" fill="#1F4A21"/>
<path d="M45.9245 16.1473C46.054 16.1473 46.0857 16.0503 46.0857 15.9219V11.5372C46.0857 10.1605 46.3699 9.63193 47.9753 9.63193H48.4532C50.0856 9.63193 50.3573 10.1609 50.3573 11.2961V15.9186C50.3573 16.0481 50.3676 16.144 50.4971 16.144H52.3607C52.488 16.144 52.5026 16.0459 52.5026 15.9186V11.2957C52.5026 8.92826 51.2219 7.72739 48.6932 7.72739H47.7349C47.166 7.77181 46.6076 7.90498 46.0799 8.12209V7.83683C46.0799 7.70952 46.0799 7.5957 45.9489 7.5957H44.0739C43.9455 7.5957 43.9434 7.70842 43.9434 7.83683V15.9204C43.9434 16.0499 43.9525 16.1459 44.0787 16.1459L45.9245 16.1473Z" fill="#1F4A21"/>
<path d="M29.4863 7.58784H28.5237C27.9579 7.58646 27.3963 7.68411 26.8643 7.87638V4.74799C26.8643 4.65425 26.7515 4.60938 26.6388 4.60938H24.9298C24.8171 4.60938 24.7157 4.65352 24.7109 4.74362V10.3277H27.0018C27.2385 9.68279 27.7908 9.48872 28.763 9.48872H29.2445C30.6051 9.48872 31.1508 10.0177 31.1508 11.394V12.3556C31.1508 13.7323 30.6037 14.3254 29.2445 14.3254H28.763C27.3863 14.3254 26.8577 13.7323 26.8577 12.3556V11.6935H24.7157V16.0362C24.7157 16.1489 24.8138 16.1489 24.9265 16.1489H30.4034C32.2072 16.0971 33.2772 14.4487 33.2772 12.3596V11.398C33.2772 8.97985 31.8994 7.58747 29.4856 7.58747" fill="#1F4A21"/>
<path d="M69.073 16.346L66.2036 16.3358C64.6252 16.3358 63.4506 15.321 63.3434 13.9209C63.3412 13.89 63.3454 13.859 63.3558 13.8298C63.3662 13.8006 63.3824 13.7739 63.4036 13.7513C63.4247 13.7286 63.4503 13.7106 63.4788 13.6983C63.5072 13.686 63.5378 13.6797 63.5688 13.6798L65.2767 13.6853C65.4077 13.6853 65.4708 13.798 65.5178 13.9289C65.6638 14.3667 66.2427 14.417 66.4345 14.417L68.837 14.4261C69.0624 14.4261 69.7884 14.2977 69.7898 13.6371C69.7913 12.9765 69.065 12.9608 68.8414 12.9608L66.2113 12.9484C64.5333 12.9415 63.3262 11.9077 63.3321 10.3891C63.3379 8.87049 64.5519 7.7962 66.2102 7.80276L68.74 7.81188C70.2381 7.81188 71.3664 8.72749 71.5685 10.0316C71.5694 10.0636 71.5638 10.0955 71.5519 10.1253C71.54 10.155 71.5221 10.1821 71.4994 10.2047C71.4767 10.2273 71.4495 10.2449 71.4197 10.2567C71.3899 10.2684 71.358 10.2738 71.3259 10.2727H69.6479C69.5752 10.2598 69.5062 10.2313 69.4455 10.1893C69.3848 10.1472 69.3339 10.0926 69.2963 10.029C69.1896 9.9273 69.063 9.84883 68.9244 9.7986C68.7858 9.74836 68.6383 9.72746 68.4912 9.73721L66.4619 9.73028C66.2365 9.73028 65.4799 9.73028 65.477 10.3869C65.477 11.0632 66.2335 11.0373 66.4396 11.0373L69.0869 11.0464C70.7587 11.0534 71.9482 12.1196 71.9428 13.6517C71.9373 15.1838 70.7408 16.3577 69.0679 16.3511" fill="#1F4A21"/>
<path d="M87.5361 7.71032H85.4178C83.7537 7.71032 82.543 8.81196 82.543 10.3295V15.9107C82.543 16.0369 82.543 16.1518 82.6681 16.1518H84.5442C84.6726 16.1518 84.6875 16.0391 84.6875 15.9107V10.3123C84.6875 9.65826 85.4215 9.6236 85.6469 9.6236H87.5365C87.6324 9.6236 87.709 9.60427 87.709 9.49849V7.84784C87.709 7.74169 87.6324 7.7136 87.5365 7.70703" fill="#1F4A21"/>
<path d="M97.7793 15.9059C97.7793 16.0332 97.7793 16.147 97.9044 16.147H99.7805C99.91 16.147 99.9239 16.0343 99.9239 15.9048V11.6963H97.7793V15.9059Z" fill="#1F4A21"/>
<path d="M99.8016 7.79297H97.9266C97.7971 7.79297 97.7832 7.90569 97.7832 8.03409V10.3322H99.9252V8.03409C99.9252 7.90788 99.9252 7.79297 99.799 7.79297" fill="#1F4A21"/>
<path d="M40.5868 13.523C40.5868 14.1796 40.5193 14.2445 39.6442 14.2445H37.2607C37.0353 14.2445 36.2991 14.1814 36.2991 13.523V13.2852C36.2991 12.6089 37.0363 12.5804 37.2607 12.5804H39.6442C39.8696 12.5804 40.5868 12.6121 40.5868 13.2852V13.523ZM42.7288 11.4937C42.7288 9.07884 41.3364 7.70215 38.9194 7.70215H35.4696C35.4389 7.70304 35.4087 7.71 35.3808 7.72263C35.3528 7.73526 35.3276 7.7533 35.3066 7.77572C35.2857 7.79814 35.2694 7.82449 35.2586 7.85325C35.2479 7.882 35.243 7.9126 35.2442 7.94327V9.36593C35.2424 9.42761 35.2651 9.48748 35.3074 9.53246C35.3496 9.57744 35.4079 9.60386 35.4696 9.60596H38.6848C39.7547 9.60596 40.315 9.94411 40.5087 10.7412C40.3031 10.7018 40.0946 10.68 39.8853 10.6759H37.0218C35.3733 10.6759 34.1582 11.7637 34.1582 13.2859V13.5237C34.1582 15.0456 35.3737 16.1502 37.0218 16.1502H42.5978C42.6209 16.1524 42.6442 16.1474 42.6644 16.1359C42.6845 16.1244 42.7007 16.107 42.7106 16.086C42.7311 16.029 42.7395 15.9684 42.7354 15.908L42.7288 11.4937Z" fill="#1F4A21"/>
<path d="M96.6922 7.70091H94.8888C94.7604 7.70091 94.6958 7.83187 94.6476 7.9818C94.6476 7.9818 92.819 13.2347 92.765 13.2347C92.711 13.2347 90.8812 7.9818 90.8812 7.9818C90.8327 7.83187 90.7685 7.69982 90.6401 7.69982H88.8363C88.7079 7.69982 88.6593 7.83187 88.7236 7.9818C88.7236 7.9818 91.2198 14.893 91.7381 16.0461V16.0585C91.7699 16.1285 91.8082 16.1409 91.8304 16.1431H93.6784C93.7021 16.1431 93.7393 16.1285 93.7721 16.0574C94.2774 14.9422 96.7926 7.97815 96.7926 7.97815C96.8568 7.82822 96.8093 7.69727 96.6798 7.69727" fill="#1F4A21"/>
<path d="M103.748 10.3278C104.122 9.84849 104.373 9.76422 105.402 9.74817H105.884C106.324 9.70785 106.766 9.78239 107.168 9.96449C107.308 10.066 107.432 10.1892 107.533 10.3293C107.629 10.4602 107.646 10.5751 107.778 10.5751H109.796C109.928 10.5751 109.973 10.4566 109.928 10.3293C109.857 10.1227 109.768 9.92278 109.662 9.73176C108.999 8.45903 107.796 7.79038 106.128 7.78345H105.158C103.33 7.78345 101.836 8.57248 101.454 10.3256L103.748 10.3278ZM109.785 13.462H107.893C107.766 13.462 107.714 13.5748 107.651 13.7057C107.376 14.2084 106.825 14.4192 105.951 14.4192H105.468C104.076 14.4192 103.541 13.8848 103.541 12.4935V11.6965H101.371V12.4935C101.371 14.9547 102.763 16.3424 105.224 16.3424H106.194C108.2 16.3424 109.514 15.4045 109.915 13.7053C109.947 13.578 109.915 13.4617 109.784 13.4617" fill="#1F4A21"/>
<path d="M9.89395 19.9999C12.2746 19.9994 14.5753 19.1405 16.3738 17.5807C18.1723 16.0208 19.348 13.8647 19.6851 11.508L0.103516 11.5059C0.439974 13.8629 1.61529 16.0195 3.41372 17.5798C5.21215 19.1401 7.51301 19.9993 9.89395 19.9999Z" fill="#1F4A21"/>
<path d="M5.63248 10.5371C4.8263 10.5371 4.04384 10.4109 3.93331 10.0399C3.83956 9.72765 4.21857 9.4526 4.55892 9.23957C5.99876 8.45578 7.49085 7.77201 9.0246 7.19313C9.74286 6.92369 10.525 6.87379 11.2717 7.04977C11.8411 7.17161 16.6471 8.05439 19.7015 8.6136C19.5349 7.32437 19.1159 6.08061 18.4684 4.95344C17.8208 3.82627 16.9575 2.83778 15.9276 2.04451C14.8978 1.25124 13.7217 0.668748 12.4666 0.33033C11.2115 -0.00808785 9.90194 -0.0957894 8.61291 0.0722399C7.32388 0.240269 6.08061 0.660735 4.95419 1.30959C3.82777 1.95845 2.84029 2.82298 2.04823 3.85374C1.25616 4.88449 0.675032 6.06127 0.338077 7.31678C0.00112239 8.57229 -0.0850526 9.8819 0.084479 11.1707H19.75C19.7726 10.9679 19.7883 10.7625 19.7985 10.5564L5.63248 10.5371Z" fill="#1F4A21"/>
</g>
<defs>
<clipPath id="clip0_14309_360">
<rect width="120" height="20" fill="white"/>
</clipPath>
</defs>
</svg>
