<svg width="22" height="30" viewBox="0 0 22 30" fill="none" xmlns="http://www.w3.org/2000/svg">
<path d="M2.77268 0.581163C2.57331 0.439213 2.33872 0.354876 2.0946 0.337392C1.85049 0.319907 1.60627 0.36995 1.3887 0.482037C1.17114 0.594125 0.988622 0.763932 0.861149 0.972855C0.733676 1.18178 0.666166 1.42176 0.666016 1.6665V28.3332C0.666166 28.5779 0.733676 28.8179 0.861149 29.0268C0.988622 29.2357 1.17114 29.4055 1.3887 29.5176C1.60627 29.6297 1.85049 29.6798 2.0946 29.6623C2.33872 29.6448 2.57331 29.5604 2.77268 29.4185L21.4394 16.0852C21.6122 15.9618 21.7531 15.799 21.8503 15.6102C21.9475 15.4214 21.9982 15.2122 21.9982 14.9998C21.9982 14.7875 21.9475 14.5782 21.8503 14.3894C21.7531 14.2007 21.6122 14.0378 21.4394 13.9145L2.77268 0.581163Z" fill="white"/>
</svg>
